Coordinates
version=1
nRows=9
nColumns=63
inDegrees=yes

Units are S.I. units (second, meters, Newtons, ...)
If the header above contains a line with 'inDegrees', this indicates whether rotational values are in degrees (yes) or radians (no).

endheader
time	pelvis_tilt	pelvis_list	pelvis_rotation	pelvis_tx	pelvis_ty	pelvis_tz	hip_flexion_r	hip_adduction_r	hip_rotation_r	knee_angle_r	knee_angle_r_beta	ankle_angle_r	subtalar_angle_r	mtp_angle_r	hip_flexion_l	hip_adduction_l	hip_rotation_l	knee_angle_l	knee_angle_l_beta	ankle_angle_l	subtalar_angle_l	mtp_angle_l	L5_S1_Flex_Ext	L5_S1_Lat_Bending	L5_S1_axial_rotation	L4_L5_Flex_Ext	L4_L5_Lat_Bending	L4_L5_axial_rotation	L3_L4_Flex_Ext	L3_L4_Lat_Bending	L3_L4_axial_rotation	L2_L3_Flex_Ext	L2_L3_Lat_Bending	L2_L3_axial_rotation	L1_L2_Flex_Ext	L1_L2_Lat_Bending	L1_L2_axial_rotation	L1_T12_Flex_Ext	L1_T12_Lat_Bending	L1_T12_axial_rotation	Abs_r3	Abs_r2	Abs_r1	Abs_t1	Abs_t2	neck_flexion	neck_bending	neck_rotation	arm_flex_r	arm_add_r	arm_rot_r	elbow_flex_r	pro_sup_r	wrist_flex_r	wrist_dev_r	arm_flex_l	arm_add_l	arm_rot_l	elbow_flex_l	pro_sup_l	wrist_flex_l	wrist_dev_l
      5.51666667	     -4.05941738	     -7.37598530	     99.79207227	      0.21092222	      0.85487986	      0.65600441	      1.86371467	     -5.39616315	    -24.28418520	      7.37951115	      0.12879677	     11.17928558	     16.33667686	      0.00000000	      7.36092065	      3.35663158	     10.28972629	      9.14906525	      0.15968131	     -1.72307963	     -7.07402240	      0.00000000	     -0.02676396	     -0.41120195	      0.18534998	     -0.04970335	     -0.54689860	      0.19693435	     -0.04397051	     -0.99979643	      0.19693435	     -0.03058853	     -0.99979643	      0.16218123	     -0.02485301	     -0.83852302	      0.15059685	     -0.01529293	     -0.63695183	      0.13901248	     -0.19117228	     -4.65159874	      1.03086096	      0.00000000	      0.00000000	     15.86505610	     -4.93596968	     -8.38916491	     70.28697128	    -26.43716348	     40.92246865	     88.74380536	     67.09385678	      2.65671272	     -3.16563799	     71.64830232	    -25.81620806	     46.95789989	     88.23830910	     66.23408782	     -7.41190149	     -4.43387082
      5.53333333	     -3.63760184	     -7.71189591	    101.45623009	      0.20915535	      0.85321960	      0.65910534	      2.19658927	     -5.10592557	    -25.82214032	      7.47093539	      0.13039242	     11.58481816	     16.24860857	      0.00000000	      8.30798065	      3.20739189	     11.53489240	      9.73128657	      0.16984299	     -1.27682457	     -6.48175183	      0.00000000	     -0.03228897	     -0.34586234	     -0.02379803	     -0.05996384	     -0.45999691	     -0.02528541	     -0.05304754	     -0.84092969	     -0.02528541	     -0.03690306	     -0.84092969	     -0.02082328	     -0.02998353	     -0.70528248	     -0.01933590	     -0.01844992	     -0.53574076	     -0.01784852	     -0.23063686	     -3.91246395	     -0.13235750	      0.00000000	      0.00000000	     15.19883332	     -5.16215983	     -7.73756371	     69.26879836	    -26.37135099	     40.07302252	     85.26991286	     68.61475294	      7.02492669	     -4.42256065	     70.20058969	    -24.71694334	     46.24081525	     85.43814736	     63.75002227	     -8.89088159	     -0.98571209
      5.55000000	     -3.19889115	     -8.25675518	    102.70156587	      0.20745128	      0.85071102	      0.66175320	      2.88681586	     -4.90829613	    -26.70888458	      7.75842315	      0.13541003	     12.23932140	     15.85942460	      0.00000000	      9.47795283	      3.12215337	     12.64889752	     10.42357131	      0.18192564	     -0.68832947	     -6.27935018	      0.00000000	     -0.00463236	     -0.28892891	     -0.28755622	     -0.00860275	     -0.38427544	     -0.30552848	     -0.00761050	     -0.70250174	     -0.30552848	     -0.00529432	     -0.70250174	     -0.25161169	     -0.00430161	     -0.58918382	     -0.23363942	     -0.00264693	     -0.44755087	     -0.21566716	     -0.03308846	     -3.26842157	     -1.59930140	      0.00000000	      0.00000000	     15.16307429	     -5.33931728	     -7.06745689	     68.20959194	    -26.07817993	     39.74756792	     81.77716374	     68.93449751	     10.08444026	     -5.36193448	     69.10363939	    -24.50015573	     46.14495332	     82.50934374	     62.54212962	     -9.53048994	      2.23076562
      5.56666667	     -2.84996884	     -8.90963495	    104.15749951	      0.20559684	      0.84769586	      0.66422990	      3.52490868	     -4.82961852	    -28.02486520	      7.86570195	      0.13728240	     13.01449673	     15.79975716	      0.00000000	     10.75570361	      3.25957629	     14.08581451	     11.17160183	      0.19498123	     -0.06083335	     -6.39619334	      0.00000000	      0.01913060	     -0.24796093	     -0.85113172	      0.03552744	     -0.32978804	     -0.90432745	      0.03142966	     -0.60289220	     -0.90432745	      0.02186436	     -0.60289220	     -0.74474026	      0.01776468	     -0.50564193	     -0.69154452	      0.01093123	     -0.38409148	     -0.63834879	      0.13664797	     -2.80498363	     -4.73373929	      0.00000000	      0.00000000	     16.40042591	     -5.30166006	     -5.31724728	     67.75447002	    -24.06085743	     39.51327720	     76.79150184	     69.37206309	     16.02420725	     -5.86859968	     68.08544547	    -26.29752397	     46.34896514	     80.26252112	     61.15445485	     -9.17121725	      5.16164934
      5.58333333	     -2.40243987	     -9.63151928	    104.35217249	      0.20462506	      0.84419540	      0.66597622	      4.55712908	     -4.73111919	    -28.15629071	      8.26285000	      0.14421394	     13.89920039	     15.93783272	      0.00000000	     11.99996038	      3.17645638	     14.55013446	     11.85064580	      0.20683279	      0.82153497	     -6.95119160	      0.00000000	      0.06214303	     -0.19983295	     -1.16775542	      0.11540583	     -0.26577782	     -1.24074013	      0.10209479	     -0.48587383	     -1.24074013	      0.07102327	     -0.48587383	     -1.02178599	      0.05770602	     -0.40749935	     -0.94880128	      0.03550853	     -0.30954124	     -0.87581657	      0.44388148	     -2.26055029	     -6.49470532	      0.00000000	      0.00000000	     17.59108407	     -5.47649971	     -4.38643805	     67.06242326	    -22.58213471	     39.81140172	     72.81682575	     68.86153076	     17.20728298	     -4.89066089	     67.83022207	    -28.17710019	     48.29962405	     77.28797149	     60.72328060	     -8.32583166	      6.76290380
      5.60000000	     -2.01809050	    -10.44774457	    105.43935490	      0.20235819	      0.84054017	      0.66821489	      5.40044110	     -4.78607519	    -29.36305518	      8.40637818	      0.14671898	     14.87064149	     16.38324547	      0.00000000	     13.43925189	      3.46043062	     16.23101923	     12.66984458	      0.22113050	      1.53102099	     -7.77344125	      0.00000000	      0.10293802	     -0.15461366	     -1.73513887	      0.19116620	     -0.20563616	     -1.84358505	      0.16911687	     -0.37592764	     -1.84358505	      0.11764786	     -0.37592764	     -1.51824651	      0.09558825	     -0.31528817	     -1.40980033	      0.05881879	     -0.23949655	     -1.30135415	      0.73527599	     -1.74902060	     -9.65032185	      0.00000000	      0.00000000	     19.44934500	     -4.63966661	     -1.80114379	     67.06284206	    -20.61482908	     41.43500683	     68.39562035	     61.73178724	     19.80686732	     -0.92306458	     67.23300835	    -30.61887412	     50.13235200	     74.46154153	     57.00183187	     -6.57728224	      8.02455975
      5.61666667	     -1.56772500	    -11.22324689	    106.14672787	      0.20058419	      0.83703811	      0.67060350	      6.38923929	     -4.78019685	    -30.03384354	      8.69671053	      0.15178623	     15.67265244	     16.43049288	      0.00000000	     14.94849577	      3.58204591	     16.89071669	     13.62833456	      0.23785931	      2.58793872	     -7.68000977	      0.00000000	      0.14096757	     -0.11399642	     -2.12003393	      0.26179087	     -0.15161523	     -2.25253605	      0.23159562	     -0.27717089	     -2.25253605	      0.16111183	     -0.27717089	     -1.85502969	      0.13090248	     -0.23246149	     -1.72252757	      0.08054887	     -0.17658045	     -1.59002545	      1.00691724	     -1.28955026	    -11.79099270	      0.00000000	      0.00000000	     20.78690863	     -3.92797242	     -0.64205412	     66.77345890	    -19.70227503	     44.02061905	     65.22647382	     55.54903209	     17.73783273	      1.48466703	     67.15528228	    -32.05162754	     52.99433094	     70.48741141	     55.14015543	     -3.81583912	      8.18039008
      5.63333333	     -1.11833499	    -12.07327554	    106.14831113	      0.19946774	      0.83372355	      0.67308766	      7.72927997	     -4.83723779	    -29.92250756	      9.27080505	      0.16180607	     16.31195831	     16.45416418	      0.00000000	     16.54681713	      3.61697207	     16.85946667	     14.59200848	      0.25467859	      3.45197390	     -7.98250961	      0.00000000	      0.19250310	     -0.07452252	     -2.30664252	      0.35749751	     -0.09911496	     -2.45080767	      0.31626335	     -0.18119407	     -2.45080767	      0.22001179	     -0.18119407	     -2.01831220	      0.17875838	     -0.15196633	     -1.87414704	      0.10999627	     -0.11543539	     -1.72998189	      1.37503040	     -0.84301370	    -12.82885368	      0.00000000	      0.00000000	     21.51890310	     -3.70643886	     -0.52265251	     66.16564099	    -19.02555996	     46.21973421	     62.26440106	     54.04751711	     16.74602221	      2.35274981	     66.71028950	    -32.60015361	     55.65072449	     66.55544496	     55.26969894	     -3.17051339	      8.76796778
      5.65000000	     -0.60565970	    -12.76629996	    106.72572030	      0.19798107	      0.83076663	      0.67599743	      8.83257458	     -4.84756290	    -30.47927401	      9.77587658	      0.17062123	     16.82372528	     16.56728961	      0.00000000	     18.22302086	      3.52758386	     16.08120811	     15.78893810	      0.27556896	      4.93596184	     -5.87211266	      0.00000000	      0.21262457	     -0.02455695	     -2.51938415	      0.39486509	     -0.03266075	     -2.67684566	      0.34932091	     -0.05970777	     -2.67684566	      0.24300862	     -0.05970777	     -2.20446113	      0.19744318	     -0.05007654	     -2.04699962	      0.12149368	     -0.03803872	     -1.88953811	      1.51875604	     -0.27779315	    -14.01205884	      0.00000000	      0.00000000	     22.44914904	     -3.02709032	     -0.05065469	     66.78888459	    -19.44045129	     53.17270420	     59.69672070	     42.31450412	     15.64373354	      1.87534315	     66.20299490	    -32.57843515	     58.87701377	     62.14631774	     55.94652346	     -2.14908925	      6.21482351
